<svg id="Capa_1" enable-background="new 0 0 512 512" height="512" viewBox="0 0 512 512" width="512" xmlns="http://www.w3.org/2000/svg"><g><path d="m452.045 72.497c-79.861-79.86-209.802-79.859-289.662 0-27.892 27.892-47.025 62.925-55.332 101.311-7.767 35.891-27.203 67.165-54.725 88.059-32.918 24.99-51.989 62.989-52.321 104.254-.283 35.163 13.407 68.448 38.55 93.724 25.382 25.516 58.992 39.553 94.683 39.553h.377c99.178-.275 193.006-29.245 264.199-81.573 34.781-25.564 62.362-55.363 81.978-88.568 20.421-34.569 31.257-71.282 32.206-109.119.002-.083.003-.167.003-.251-.001-55.566-21.854-109.288-59.956-147.39zm-66.076 329.213c-67.801 49.834-157.441 77.424-252.41 77.688-.108 0-.212 0-.32 0-30.327 0-58.908-11.946-80.505-33.658-21.346-21.459-32.97-49.678-32.73-79.458.282-35.02 16.471-67.272 44.416-88.486 31.321-23.778 53.403-59.206 62.18-99.759 7.492-34.623 24.756-66.228 49.927-91.398 36.031-36.031 83.359-54.046 130.688-54.046s94.657 18.015 130.688 54.046c34.353 34.352 54.066 82.865 54.098 133.124-1.761 68.368-39.412 132.979-106.032 181.947z"/><path d="m357.391 75.117c-16.687-5.855-34.178 6.385-34.178 24.069v18.294c0 10.887 6.251 20.843 16.112 25.458 20.864 9.765 35.319 30.942 35.319 55.501 0 10.238-2.513 19.889-6.954 28.371-5.248 10.022-4.004 22.202 3.173 30.947 8.643 10.531 16.422 21.782 23.214 33.642.073.127.146.255.219.382 10.105 17.72 35.836 17.281 45.05-.918 11.579-22.872 17.953-46.976 18.654-71.529-.143-41.153-16.212-80.728-44.138-108.654-16.471-16.469-35.835-28.322-56.471-35.563z"/><path d="m182.221 244.931c18.016-4.214 35.641-9.88 52.73-16.954 10.966-4.54 17.619-15.561 17.213-27.423-.024-.702-.036-1.407-.036-2.115 0-20.952 10.524-39.437 26.571-50.479 7.73-5.319 12.515-13.953 12.515-23.336v-25.438c0-17.684-17.491-29.925-34.178-24.069-20.636 7.241-39.999 19.094-56.469 35.564-20.542 20.542-34.629 46.321-40.738 74.548-1.932 8.928-4.411 17.653-7.405 26.126-6.73 19.049 10.124 38.177 29.797 33.576z"/><path d="m366.309 307.302c-7.997-13.964-17.565-26.96-28.443-38.745-5.648-6.119-13.759-9.25-22.08-8.923-10.629.418-21.373-1.917-31.077-7.07-7.63-4.052-16.753-4.249-24.604-.645-39.606 18.18-82.097 29.279-125.876 32.815-17.19 1.388-33.519 7.852-47.099 18.483-.714.559-1.431 1.111-2.153 1.659-19.489 14.795-30.778 37.276-30.975 61.68-.166 20.629 7.944 40.235 22.836 55.206 15.167 15.247 35.191 23.636 56.404 23.636h.223c87.811-.243 170.334-25.488 232.367-71.083l.224-.165c13.46-9.9 18.344-27.717 11.918-43.14-3.385-8.126-7.278-16.047-11.665-23.708z"/><ellipse cx="313.386" cy="198.439" rx="32.35" ry="32.35" transform="matrix(.973 -.23 .23 .973 -37.209 77.31)"/></g></svg>