<svg id="Layer_1" enable-background="new 0 0 511.763 511.763" height="512" viewBox="0 0 511.763 511.763" width="512" xmlns="http://www.w3.org/2000/svg"><g><path d="m268.506 138.455c-22.795 22.794-53.874 35.869-85.268 35.87-.616 0-1.228-.005-1.845-.015-93.347-3.019-180.132 79.654-181.295 173.196-1.464 45.23 14.826 87.236 45.871 118.28 29.635 29.635 69.692 45.958 112.794 45.959 95.753 1.45 181.66-85.583 178.681-181.31-.494-32.047 12.577-63.782 35.863-87.069l12.052-12.052-104.856-104.856zm-177.228 203.454h-30v-30.002h30zm15.003-75.004h30v30.002h-30zm40 85.005h-30v-30.002h30z"/><path d="m463.519 48.396h-.158v-.158c-2.672-64.343-94.332-64.294-96.976.008l.015 28.582-46.551 46.551 68.571 68.572 46.559-46.558 28.54-.02c64.341-2.672 64.291-94.33 0-96.977z"/></g></svg>