<svg height="512" viewBox="0 0 64 64" width="512" xmlns="http://www.w3.org/2000/svg"><g id="Glyph"><path d="m7.879 23.457a79.677 79.677 0 0 0 6.371 8.543h1.729a25.744 25.744 0 0 0 -.927-3.683 27.189 27.189 0 0 0 -7.723-11.576l1.342-1.482a29.153 29.153 0 0 1 8.277 12.424c.264.787.481 1.594.674 2.409.09-.164.183-.326.262-.5 2.251-5 1.157-12.962-3.627-15.724a9.56 9.56 0 0 0 -7.5-.543 4.2 4.2 0 0 0 -2.646 2.044c-.531 1.341.927 3.695 3.768 8.088z"/><path d="m30.939 22.279a7.294 7.294 0 0 0 -.449-1.761c-1.559-3.956-6.109-6.161-8.835-5.349a4.346 4.346 0 0 0 -2.2 1.667 17 17 0 0 1 .582 12.747c.057-.07.125-.132.181-.2a18.6 18.6 0 0 0 3.79-9.489l1.988.218a20.483 20.483 0 0 1 -4.21 10.511c-.381.482-.8.935-1.228 1.38h4.612l.083-.039a7.959 7.959 0 0 1 5.688-9.682z"/><path d="m49.2 32h10.015a5.77 5.77 0 0 0 -2.567-2.064 7.322 7.322 0 0 0 -2.1-.38c-.918-.068-1.959-.146-2.441-1.109-.5-1.01.183-1.861.731-2.546a5.256 5.256 0 0 0 1.189-2.124c.494-2.155.5-5.772-1.516-6.906a3.919 3.919 0 0 0 -3.054-.216 6.2 6.2 0 0 0 -3.567 2.805c-.779 1.506-.324 3.176.116 4.789s.9 3.309-.312 4.473c-1.231 1.185-3.029.7-4.77.225a7.541 7.541 0 0 1 -.186 3.053h6.429c.25-1.416.532-2.834.859-4.229.56-2.384 1.242-4.77 2.027-7.091l1.894.64c-.764 2.261-1.428 4.586-1.973 6.909-.292 1.244-.545 2.508-.774 3.771z"/><path d="m38.654 32a5.826 5.826 0 0 0 .325-1.606l-1.663.554-.632-1.9 2.082-.694a6.01 6.01 0 0 0 -4.766-4.264v1.91h-2v-1.91a6.01 6.01 0 0 0 -4.432 3.379l1.748.583-.632 1.9-1.653-.552a6.026 6.026 0 0 0 -.031.6 5.886 5.886 0 0 0 .346 2zm-6.654-4h2v2h-2z"/><path d="m11.653 32q-1.678-2.044-3.231-4.216a15.985 15.985 0 0 0 -2.643 1.154 3.164 3.164 0 0 0 -1.575 1.5 2.727 2.727 0 0 0 -.156 1.562z"/><path d="m4.018 34a27.032 27.032 0 0 0 26.982 26h2a27.032 27.032 0 0 0 26.982-26zm16.547 20.9a27.157 27.157 0 0 1 -11.42-10.381l1.71-1.038a25.172 25.172 0 0 0 10.58 9.619zm4.435 1.1h-2v-2h2z"/><path d="m47 8v-2h-4a8 8 0 0 0 -8 8v2h4a8 8 0 0 0 8-8z"/><circle cx="28" cy="8" r="2"/><circle cx="15" cy="5" r="2"/></g></svg>